<?xml version="1.0" encoding="UTF-8"?>
<svg width="40px" height="24px" viewBox="0 0 40 24" version="1.1" xmlns="http://www.w3.org/2000/svg" xmlns:xlink="http://www.w3.org/1999/xlink">
    <title>card_10</title>
    <g id="PC" stroke="none" stroke-width="1" fill="none" fill-rule="evenodd">
        <g id="Listing-增加amazon-button、支付方式等" transform="translate(-1502.000000, -1846.000000)" fill-rule="nonzero">
            <g id="编组-25" transform="translate(1088.000000, 1659.000000)">
                <g id="编组-10" transform="translate(18.000000, 187.000000)">
                    <g id="card_10" transform="translate(397.000000, 1.000000)">
                        <path d="M35.8888808,-0.5 C36.6037498,-0.5 37.2528434,-0.221583112 37.7237323,0.224520483 C38.2047011,0.680173379 38.5,1.30956892 38.5,2 L38.5,20.0000738 C38.5,20.6904705 38.2046978,21.3198558 37.723717,21.7755033 C37.2528301,22.2215885 36.6037425,22.5 35.8888808,22.5 L2.1111101,22.5 C1.39625256,22.5 0.747166298,22.221588 0.276280113,21.7755016 C-0.20469839,21.3198543 -0.5,20.6904697 -0.5,20.0000738 L-0.5,2 C-0.5,1.30956973 -0.204701718,0.680174857 0.276264761,0.224522185 C0.747153007,-0.221582683 1.39624521,-0.5 2.1111101,-0.5 Z" id="路径" stroke="#DDDDDD" fill="#FFFFFF"></path>
                        <path d="M29.333325,8.92728797 L28.9999616,8.92728797 C28.555573,10.0182039 28.2222096,10.5636148 27.8888462,12.1999416 L29.9999559,12.1999416 C29.6666884,10.5636148 29.6666884,9.80000188 29.333325,8.92728797 Z M32.55555,15.3635884 L30.6666827,15.3635884 C30.5555615,15.3635884 30.5555615,15.3635884 30.4444404,15.2545816 L30.2221981,14.2726725 L30.111077,14.0545646 L27.4444577,14.0545646 C27.3333365,14.0545646 27.2222154,14.0545646 27.2222154,14.2726725 L26.888852,15.2545816 C26.888852,15.3635884 26.7777309,15.3635884 26.7777309,15.3635884 L24.4444749,15.3635884 L24.6666212,14.8181775 L27.8888462,7.39996797 C27.8888462,6.85451942 28.2222096,6.63633623 28.7778153,6.63633623 L30.4444404,6.63633623 C30.5555615,6.63633623 30.6666827,6.63633623 30.6666827,6.85451942 L32.2221866,13.9454636 C32.3333077,14.3817735 32.4444289,14.7090765 32.4444289,15.1454806 C32.55555,15.2545816 32.55555,15.2545816 32.55555,15.3635884 Z M17.6666615,15.0363796 L18.1111461,13.0727497 C18.2222672,13.0727497 18.3332924,13.1818507 18.3332924,13.1818507 C19.1111403,13.5090596 19.8888923,13.7272616 20.6666443,13.6181606 C20.8888865,13.6181606 21.2222499,13.5090596 21.4443963,13.3999585 C22.0000019,13.1818507 22.0000019,12.6363362 21.5555174,12.1999416 C21.3333711,11.9818338 21.0000077,11.8727328 20.6666443,11.6545307 C20.2222557,11.4363287 19.7777712,11.2181267 19.4444078,10.8909178 C18.1111461,9.80000188 18.5555347,8.27268188 19.3332866,7.50906898 C20.0000134,7.07270261 20.3333768,6.63633623 21.2222499,6.63633623 C22.5555116,6.63633623 23.9999904,6.63633623 24.6666212,6.85451942 L24.7777424,6.85451942 C24.6666212,7.50906898 24.5555001,8.05447985 24.3333538,8.70908594 C23.7777481,8.49088391 23.2222384,8.27268188 22.6666328,8.27268188 C22.3333653,8.27268188 22.0000019,8.27268188 21.6666385,8.38178289 C21.4443963,8.38178289 21.3333711,8.49088391 21.2222499,8.59998493 C21.0000077,8.81818696 21.0000077,9.14539579 21.2222499,9.36359782 L21.7777597,9.80000188 C22.2222442,10.0182039 22.6666328,10.2363117 22.9999962,10.4545138 C23.5555059,10.7818168 24.1111115,11.3272277 24.2222327,11.9818338 C24.4444749,12.9636487 24.1111115,13.8363626 23.2222384,14.4908745 C22.6666328,14.9272786 22.4444865,15.1454806 21.6666385,15.1454806 C20.1111346,15.1454806 18.8888981,15.2545816 17.8889038,14.9272786 C17.7777827,15.1454806 17.7777827,15.1454806 17.6666615,15.0363796 Z M13.7778057,15.3635884 C13.8889268,14.5999755 13.8889268,14.5999755 14.000048,14.2726725 C14.5555577,11.8727328 15.1110674,9.36359782 15.5555519,6.96361101 C15.6666731,6.74542782 15.6666731,6.63633623 15.8889153,6.63633623 L17.8889038,6.63633623 C17.6666615,7.94547305 17.4444193,8.92728797 17.1111518,10.1272107 C16.7777884,11.7636317 16.444425,13.3999585 16.0000365,15.0363796 C16.0000365,15.2545816 15.8889153,15.2545816 15.6666731,15.2545816 M3.44445191,6.85451942 C3.44445191,6.74542782 3.66667498,6.63633623 3.77778652,6.63633623 L7.55559799,6.63633623 C8.1111077,6.63633623 8.55559223,6.96361101 8.66671337,7.50906898 L9.66670761,12.3090426 C9.66670761,12.4181436 9.66670761,12.4181436 9.77782874,12.5272446 C9.77782874,12.4181436 9.88885392,12.4181436 9.88885392,12.4181436 L12.2222058,6.85451942 C12.1110847,6.74542782 12.2222058,6.63633623 12.3333269,6.63633623 L14.6666788,6.63633623 C14.6666788,6.74542782 14.6666788,6.74542782 14.5555577,6.85451942 L11.1110904,14.8181775 C10.9999693,15.0363796 10.9999693,15.1454806 10.8888482,15.2545816 C10.777823,15.3635884 10.5555807,15.2545816 10.3333385,15.2545816 L8.66671337,15.2545816 C8.55559223,15.2545816 8.4444711,15.2545816 8.4444711,15.0363796 L6.6666769,8.27268188 C6.44445191,8.05447985 6.11111921,7.72727101 5.66667306,7.61817 C5.00000384,7.29088579 3.77778652,7.07270261 3.55556345,7.07270261 L3.44445191,6.85451942 Z" id="形状" fill="#142688"></path>
                    </g>
                </g>
            </g>
        </g>
    </g>
</svg>