<?xml version="1.0" encoding="UTF-8"?>
<svg width="40px" height="24px" viewBox="0 0 40 24" version="1.1" xmlns="http://www.w3.org/2000/svg" xmlns:xlink="http://www.w3.org/1999/xlink">
    <title>card_05</title>
    <defs>
        <linearGradient x1="-57.5270968%" y1="50.1241953%" x2="232.39121%" y2="50.1241953%" id="linearGradient-1">
            <stop stop-color="#007940" offset="0%"></stop>
            <stop stop-color="#00873F" offset="22.85%"></stop>
            <stop stop-color="#40A737" offset="74.33%"></stop>
            <stop stop-color="#5CB531" offset="100%"></stop>
        </linearGradient>
        <linearGradient x1="0.182516704%" y1="49.95997%" x2="100.273441%" y2="49.95997%" id="linearGradient-2">
            <stop stop-color="#007940" offset="0%"></stop>
            <stop stop-color="#00873F" offset="22.85%"></stop>
            <stop stop-color="#40A737" offset="74.33%"></stop>
            <stop stop-color="#5CB531" offset="100%"></stop>
        </linearGradient>
        <linearGradient x1="-62.8015845%" y1="49.8578253%" x2="253.671294%" y2="49.8578253%" id="linearGradient-3">
            <stop stop-color="#007940" offset="0%"></stop>
            <stop stop-color="#00873F" offset="22.85%"></stop>
            <stop stop-color="#40A737" offset="74.33%"></stop>
            <stop stop-color="#5CB531" offset="100%"></stop>
        </linearGradient>
        <linearGradient x1="0.175556793%" y1="50.0058048%" x2="101.808162%" y2="50.0058048%" id="linearGradient-4">
            <stop stop-color="#1F286F" offset="0%"></stop>
            <stop stop-color="#004E94" offset="47.51%"></stop>
            <stop stop-color="#0066B1" offset="82.61%"></stop>
            <stop stop-color="#006FBC" offset="100%"></stop>
        </linearGradient>
        <linearGradient x1="-0.575855512%" y1="49.9142191%" x2="98.13299%" y2="49.9142191%" id="linearGradient-5">
            <stop stop-color="#6C2C2F" offset="0%"></stop>
            <stop stop-color="#882730" offset="17.35%"></stop>
            <stop stop-color="#BE1833" offset="57.31%"></stop>
            <stop stop-color="#DC0436" offset="85.85%"></stop>
            <stop stop-color="#E60039" offset="100%"></stop>
        </linearGradient>
    </defs>
    <g id="PC" stroke="none" stroke-width="1" fill="none" fill-rule="evenodd">
        <g id="Listing-增加amazon-button、支付方式等" transform="translate(-1282.000000, -1846.000000)" fill-rule="nonzero">
            <g id="编组-25" transform="translate(1088.000000, 1659.000000)">
                <g id="编组-10" transform="translate(18.000000, 187.000000)">
                    <g id="card_05" transform="translate(177.000000, 1.000000)">
                        <path d="M35.8888808,-0.5 C36.6037498,-0.5 37.2528434,-0.221583112 37.7237323,0.224520483 C38.2047011,0.680173379 38.5,1.30956892 38.5,2 L38.5,20.0000738 C38.5,20.6904705 38.2046978,21.3198558 37.723717,21.7755033 C37.2528301,22.2215885 36.6037425,22.5 35.8888808,22.5 L2.1111101,22.5 C1.39625256,22.5 0.747166298,22.221588 0.276280113,21.7755016 C-0.20469839,21.3198543 -0.5,20.6904697 -0.5,20.0000738 L-0.5,2 C-0.5,1.30956973 -0.204701718,0.680174857 0.276264761,0.224522185 C0.747153007,-0.221582683 1.39624521,-0.5 2.1111101,-0.5 Z" id="路径" stroke="#DDDDDD" fill="#FFFFFF"></path>
                        <path d="M25.7142498,13.6281662 L27.664395,13.6281662 C27.7201135,13.6281662 27.8501232,13.6085382 27.9058417,13.6085382 C28.2772979,13.5300257 28.5930356,13.1767192 28.5930356,12.6860158 C28.5930356,12.2149406 28.2772979,11.8616342 27.9058417,11.7634935 C27.8501232,11.7438654 27.7386864,11.7438654 27.664395,11.7438654 L25.7142498,11.7438654 L25.7142498,13.6281662 Z" id="路径" fill="url(#linearGradient-1)"></path>
                        <path d="M26.9238955,1.38021107 C25.214149,1.38021107 23.8121567,2.77918783 23.8121567,4.52359094 L23.8121567,7.78787006 L28.2062054,7.78787006 C28.3087903,7.78787006 28.4284726,7.78787006 28.5139599,7.80514135 C29.5056129,7.85695534 30.2408039,8.37509488 30.2408039,9.27320337 C30.2408039,9.98132741 29.7449774,10.5858236 28.8217142,10.7067228 L28.8217142,10.7412654 C29.8304647,10.8103507 30.5998507,11.3803042 30.5998507,12.2611414 C30.5998507,13.2110638 29.7449774,13.8328314 28.6165447,13.8328314 L23.7950592,13.8328314 L23.7950592,20.223219 L28.3600826,20.223219 C30.0698294,20.223219 31.4718215,18.8242422 31.4718215,17.0798392 L31.4718215,1.38021107 L26.9238955,1.38021107 L26.9238955,1.38021107 Z" id="路径" fill="url(#linearGradient-2)"></path>
                        <path d="M28.5930356,9.85956467 C28.5930356,9.34566443 28.2483922,9.00306429 27.8429294,8.93882678 C27.8023833,8.93882678 27.7010174,8.91741424 27.6401981,8.91741424 L25.7142498,8.91741424 L25.7142498,10.801715 L27.6401981,10.801715 C27.7010174,10.801715 27.8226564,10.801715 27.8429294,10.7803025 C28.2483922,10.716065 28.5930356,10.3734648 28.5930356,9.85956467 L28.5930356,9.85956467 Z" id="路径" fill="url(#linearGradient-3)"></path>
                        <path d="M9.65118047,1.38021107 C7.94143386,1.38021107 6.53944164,2.78047129 6.53944164,4.52647477 L6.53944164,12.288411 C7.41141241,12.7205901 8.31757811,12.9971847 9.22374381,12.9971847 C10.3008842,12.9971847 10.882198,12.3402725 10.882198,11.4413401 L10.882198,7.77646144 L13.5494027,7.77646144 L13.5494027,11.4240528 C13.5494027,12.8416002 12.6774319,13.9998402 9.71957033,13.9998402 C7.92433639,13.9998402 6.52234418,13.6022354 6.52234418,13.6022354 L6.52234418,20.223219 L11.0873676,20.223219 C12.7971142,20.223219 14.1991064,18.8229587 14.1991064,17.0769552 L14.1991064,1.38021107 L9.65118047,1.38021107 L9.65118047,1.38021107 Z" id="路径" fill="url(#linearGradient-4)"></path>
                        <path d="M18.1413999,1.38021107 C16.4316532,1.38021107 15.029661,2.77790672 15.029661,4.5207124 L15.029661,8.62752181 C15.8161444,7.95455724 17.1839417,7.52316969 19.3895148,7.62670272 C20.56924,7.67846921 21.8344525,8.00632373 21.8344525,8.00632373 L21.8344525,9.33499739 C21.2018464,9.00714287 20.4495578,8.71379931 19.4750022,8.64477734 C17.7994505,8.52398883 16.7907,9.35225292 16.7907,10.801715 C16.7907,12.2684326 17.7994505,13.0966968 19.4750022,12.9586527 C20.4495578,12.8896307 21.2018464,12.5790317 21.8344525,12.2684326 L21.8344525,13.5971063 C21.8344525,13.5971063 20.5863376,13.9249609 19.3895148,13.9767273 C17.1839417,14.0802603 15.8161444,13.6488728 15.029661,12.9759082 L15.029661,20.223219 L19.5946845,20.223219 C21.3044311,20.223219 22.7064232,18.8255233 22.7064232,17.0827176 L22.7064232,1.38021107 L18.1413999,1.38021107 L18.1413999,1.38021107 Z" id="路径" fill="url(#linearGradient-5)"></path>
                    </g>
                </g>
            </g>
        </g>
    </g>
</svg>