<?xml version="1.0" encoding="UTF-8"?>
<svg width="40px" height="24px" viewBox="0 0 40 24" version="1.1" xmlns="http://www.w3.org/2000/svg" xmlns:xlink="http://www.w3.org/1999/xlink">
    <title>card_06</title>
    <g id="PC" stroke="none" stroke-width="1" fill="none" fill-rule="evenodd">
        <g id="Listing-增加amazon-button、支付方式等" transform="translate(-1326.000000, -1846.000000)" fill-rule="nonzero">
            <g id="编组-25" transform="translate(1088.000000, 1659.000000)">
                <g id="编组-10" transform="translate(18.000000, 187.000000)">
                    <g id="card_06" transform="translate(221.000000, 1.000000)">
                        <path d="M35.8888808,-0.5 C36.6037498,-0.5 37.2528434,-0.221583112 37.7237323,0.224520483 C38.2047011,0.680173379 38.5,1.30956892 38.5,2 L38.5,20.0000738 C38.5,20.6904705 38.2046978,21.3198558 37.723717,21.7755033 C37.2528301,22.2215885 36.6037425,22.5 35.8888808,22.5 L2.1111101,22.5 C1.39625256,22.5 0.747166298,22.221588 0.276280113,21.7755016 C-0.20469839,21.3198543 -0.5,20.6904697 -0.5,20.0000738 L-0.5,2 C-0.5,1.30956973 -0.204701718,0.680174857 0.276264761,0.224522185 C0.747153007,-0.221582683 1.39624521,-0.5 2.1111101,-0.5 Z" id="路径" stroke="#DDDDDD" fill="#FFFFFF"></path>
                        <path d="M14.5554617,18.6364304 C18.85109,18.6364304 22.3332694,15.2174609 22.3332694,11.0000188 C22.3332694,6.78257681 18.85109,3.36365435 14.5554617,3.36365435 C10.2599294,3.36365435 6.77773086,6.78257681 6.77773086,11.0000188 C6.77773086,15.2174609 10.2599294,18.6364304 14.5554617,18.6364304 Z" id="路径" fill="#EB001B"></path>
                        <path d="M23.4443847,18.6364304 C27.7399171,18.6364304 31.2221924,15.2174609 31.2221924,11.0000188 C31.2221924,6.78257681 27.7399171,3.36365435 23.4443847,3.36365435 C19.1488524,3.36365435 15.6666731,6.78257681 15.6666731,11.0000188 C15.6666731,15.2174609 19.1488524,18.6364304 23.4443847,18.6364304 Z" id="路径" fill="#F79E1B"></path>
                        <path d="M22.3332694,10.9999246 C22.3332694,8.38168868 21.0000077,6.09080288 19.0000192,4.78171317 C16.9999347,6.19989448 15.6666731,8.49078969 15.6666731,10.9999246 C15.6666731,13.5089653 16.9999347,15.9089993 19.0000192,17.2181172 C21.0000077,15.9089993 22.3332694,13.6180664 22.3332694,10.9999246 Z" id="路径" fill="#FF5F00"></path>
                    </g>
                </g>
            </g>
        </g>
    </g>
</svg>