<?xml version="1.0" encoding="UTF-8"?>
<svg width="41px" height="24px" viewBox="0 0 41 24" version="1.1" xmlns="http://www.w3.org/2000/svg" xmlns:xlink="http://www.w3.org/1999/xlink">
    <title>card_07</title>
    <g id="PC" stroke="none" stroke-width="1" fill="none" fill-rule="evenodd">
        <g id="Listing-增加amazon-button、支付方式等" transform="translate(-1369.000000, -1846.000000)" fill-rule="nonzero">
            <g id="编组-25" transform="translate(1088.000000, 1659.000000)">
                <g id="编组-10" transform="translate(18.000000, 187.000000)">
                    <g id="card_07" transform="translate(264.333333, 1.000000)">
                        <path d="M35.8888808,-0.5 C36.6037498,-0.5 37.2528434,-0.221583112 37.7237323,0.224520483 C38.2047011,0.680173379 38.5,1.30956892 38.5,2 L38.5,20.0000738 C38.5,20.6904705 38.2046978,21.3198558 37.723717,21.7755033 C37.2528301,22.2215885 36.6037425,22.5 35.8888808,22.5 L2.1111101,22.5 C1.39625256,22.5 0.747166298,22.221588 0.276280113,21.7755016 C-0.20469839,21.3198543 -0.5,20.6904697 -0.5,20.0000738 L-0.5,2 C-0.5,1.30956973 -0.204701718,0.680174857 0.276264761,0.224522185 C0.747153007,-0.221582683 1.39624521,-0.5 2.1111101,-0.5 Z" id="路径" stroke="#DDDDDD" fill="#FFFFFF"></path>
                        <path d="M15.2221284,18.6364304 C19.5177567,18.6364304 22.999936,15.2174609 22.999936,11.0000188 C22.999936,6.78257681 19.5177567,3.36365435 15.2221284,3.36365435 C10.9265961,3.36365435 7.44439753,6.78257681 7.44439753,11.0000188 C7.44439753,15.2174609 10.9265961,18.6364304 15.2221284,18.6364304 Z" id="路径" fill="#EB001B"></path>
                        <path d="M24.1110514,18.6364304 C28.4065837,18.6364304 31.888859,15.2174609 31.888859,11.0000188 C31.888859,6.78257681 28.4065837,3.36365435 24.1110514,3.36365435 C19.8155191,3.36365435 16.3333397,6.78257681 16.3333397,11.0000188 C16.3333397,15.2174609 19.8155191,18.6364304 24.1110514,18.6364304 Z" id="路径" fill="#00A9E8"></path>
                        <path d="M22.999936,10.9999246 C22.999936,8.38168868 21.6666743,6.09080288 19.6666859,4.78171317 C17.6666014,6.19989448 16.3333397,8.49078969 16.3333397,10.9999246 C16.3333397,13.5089653 17.6666014,15.9089993 19.6666859,17.2181172 C21.6666743,15.9089993 22.999936,13.6180664 22.999936,10.9999246 Z" id="路径" fill="#6E79D3"></path>
                    </g>
                </g>
            </g>
        </g>
    </g>
</svg>