<?xml version="1.0" encoding="UTF-8"?>
<svg width="40px" height="24px" viewBox="0 0 40 24" version="1.1" xmlns="http://www.w3.org/2000/svg" xmlns:xlink="http://www.w3.org/1999/xlink">
    <title>card_02</title>
    <g id="PC" stroke="none" stroke-width="1" fill="none" fill-rule="evenodd">
        <g id="Listing-增加amazon-button、支付方式等" transform="translate(-1150.000000, -1846.000000)" fill-rule="nonzero">
            <g id="编组-25" transform="translate(1088.000000, 1659.000000)">
                <g id="编组-10" transform="translate(18.000000, 187.000000)">
                    <g id="card_02" transform="translate(44.000000, 0.000000)">
                        <path d="M37.7777692,0 C39,0 40,0.981814927 40,2.18182246 L40,21.8182623 C40,23.0181851 39,24 37.7777692,24 L2.22222116,24 C1,24 0,23.0181851 0,21.8182623 L0,2.18182246 C0,0.981814927 1,0 2.22222116,0 L37.7777692,0 Z" id="路径" fill="#006FCF"></path>
                        <path d="M8.85662303,10.1105362 L9.71661232,12.1570753 L8.00327414,12.1570753 L8.85662303,10.1105362 Z M26.717666,10.1956124 L23.409941,10.1956124 L23.409941,11.0978156 L26.6644084,11.0978156 L26.6644084,12.4494246 L23.4165622,12.4494246 L23.4165622,13.4552643 L26.7243831,13.4552643 L26.7243831,14.2614624 L29.0321138,11.8123425 L26.7243831,9.25958599 L26.717666,10.1956124 Z M11.0921922,7.64288417 L15.531088,7.64288417 L16.5165924,9.75383809 L17.4299352,7.63633623 L28.9521795,7.63633623 L30.1499464,8.9345441 L31.3887839,7.63633623 L36.6810478,7.63633623 L32.7710809,11.8385343 L36.6410327,16.0145217 L31.26989,16.0145217 L30.0721232,14.7163326 L28.8221544,16.0145217 L10.0332788,16.0145217 L9.48439026,14.7163326 L8.22883661,14.7163326 L7.67883497,16.0145217 L3.33327896,16.0145217 L6.98438547,7.63633623 L10.7954853,7.63633623 L11.0921922,7.64288417 Z M20.7177005,8.81884803 L18.2299497,8.81884803 L16.5632287,12.6763886 L14.7577502,8.81884803 L12.2888075,8.81884803 L12.2888075,14.0661547 L9.99998081,8.81884803 L7.78550359,8.81884803 L5.13883425,14.8320287 L6.86661434,14.8320287 L7.41550284,13.5338397 L10.2999503,13.5338397 L10.8488388,14.8320287 L13.8710841,14.8320287 L13.8710841,10.5392147 L15.8165676,14.8385296 L17.1387939,14.8385296 L19.0721865,10.5523105 L19.0721865,14.8396601 L20.6921753,14.8396601 L20.718852,8.81781167 L20.7177005,8.81884803 Z M31.0954356,11.8385343 L33.9077215,8.81884803 L31.8832633,8.81884803 L30.1043656,10.7018298 L28.384387,8.81884803 L21.835533,8.81884803 L21.835533,14.8385296 L28.2910184,14.8385296 L30.084406,12.9425461 L31.8043846,14.8385296 L33.8876659,14.8385296 L31.0965871,11.8385343 L31.0954356,11.8385343 Z" id="形状" fill="#FFFFFF"></path>
                    </g>
                </g>
            </g>
        </g>
    </g>
</svg>