<?xml version="1.0" encoding="UTF-8"?>
<svg width="40px" height="24px" viewBox="0 0 40 24" version="1.1" xmlns="http://www.w3.org/2000/svg" xmlns:xlink="http://www.w3.org/1999/xlink">
    <title>card_04</title>
    <defs>
        <linearGradient x1="75.5373849%" y1="88.8472747%" x2="40.9930018%" y2="36.3393814%" id="linearGradient-1">
            <stop stop-color="#F89F20" offset="0%"></stop>
            <stop stop-color="#F79A20" offset="25%"></stop>
            <stop stop-color="#F68D20" offset="53.3%"></stop>
            <stop stop-color="#F58720" offset="62%"></stop>
            <stop stop-color="#F48120" offset="72.3%"></stop>
            <stop stop-color="#F37521" offset="100%"></stop>
        </linearGradient>
        <linearGradient x1="70.0965009%" y1="88.1350802%" x2="19.6007366%" y2="-7.67552177%" id="linearGradient-2">
            <stop stop-color="#F58720" offset="0%"></stop>
            <stop stop-color="#E16F27" offset="35.9%"></stop>
            <stop stop-color="#D4602C" offset="70.3%"></stop>
            <stop stop-color="#D05B2E" offset="98.2%"></stop>
        </linearGradient>
    </defs>
    <g id="PC" stroke="none" stroke-width="1" fill="none" fill-rule="evenodd">
        <g id="Listing-增加amazon-button、支付方式等" transform="translate(-1238.000000, -1846.000000)" fill-rule="nonzero">
            <g id="编组-25" transform="translate(1088.000000, 1659.000000)">
                <g id="编组-10" transform="translate(18.000000, 187.000000)">
                    <g id="card_04" transform="translate(133.000000, 1.000000)">
                        <path d="M35.8888808,-0.5 C36.6037498,-0.5 37.2528434,-0.221583112 37.7237323,0.224520483 C38.2047011,0.680173379 38.5,1.30956892 38.5,2 L38.5,20.0000738 C38.5,20.6904705 38.2046978,21.3198558 37.723717,21.7755033 C37.2528301,22.2215885 36.6037425,22.5 35.8888808,22.5 L2.1111101,22.5 C1.39625256,22.5 0.747166298,22.221588 0.276280113,21.7755016 C-0.20469839,21.3198543 -0.5,20.6904697 -0.5,20.0000738 L-0.5,2 C-0.5,1.30956973 -0.204701718,0.680174857 0.276264761,0.224522185 C0.747153007,-0.221582683 1.39624521,-0.5 2.1111101,-0.5 Z" id="路径" stroke="#DDDDDD" fill="#FFFFFF"></path>
                        <g id="编组-14" transform="translate(4.107089, 5.543300)">
                            <g id="编组-21">
                                <path d="M1.35921567,0.138142222 L0,0.138142222 L0,4.82939402 L1.35921567,4.82939402 C2.07777788,4.82939402 2.59722421,4.65878805 3.05606324,4.29201467 C3.60148414,3.84848333 3.92180714,3.18314949 3.92180714,2.49225422 C3.91314895,1.10197759 2.86560557,0.138142222 1.35921567,0.138142222 Z M2.45004999,3.66933232 C2.15569408,3.92524129 1.78342944,4.04465074 1.17740871,4.04465074 L0.926343726,4.04465074 L0.926343726,0.939916642 L1.17740871,0.939916642 C1.77477125,0.939916642 2.1383777,1.04227286 2.45004999,1.31521296 C2.77037299,1.59672018 2.96083067,2.03170649 2.96083067,2.48378286 C2.96083067,2.93585923 2.77037299,3.38786193 2.45004999,3.66933232 Z M4.3460209,0.138142222 L5.27235715,0.138142222 L5.27235715,4.82939402 L4.3460209,4.82939402 L4.3460209,0.138142222 Z M7.54057027,1.93785847 C6.98653605,1.73314603 6.82204546,1.59672018 6.82204546,1.34933415 C6.82204546,1.05080316 7.11640885,0.829030124 7.51462562,0.829030124 C7.79164273,0.829030124 8.02544368,0.939916642 8.25916986,1.2128641 L8.74396849,0.590203858 C8.34575172,0.249028739 7.86955146,0.069907198 7.34146189,0.069907198 C6.50173741,0.069907198 5.85237341,0.649915949 5.85237341,1.41756917 C5.85237341,2.06581295 6.15540995,2.39847987 7.02115384,2.70551169 C7.38475282,2.83346617 7.56658969,2.91876916 7.66176993,2.96996569 C7.84360681,3.08937514 7.93886181,3.25998111 7.93886181,3.45614852 C7.93886181,3.8399383 7.63582528,4.12140869 7.22026223,4.12140869 C6.77875452,4.12140869 6.42382869,3.89967986 6.20737402,3.49880001 L5.60999652,4.07028583 C6.03421029,4.69289451 6.55362672,4.96581987 7.25488002,4.96581987 C8.21587892,4.96581987 8.89978595,4.33466616 8.89978595,3.42204206 C8.91713223,2.6628602 8.59682418,2.32172191 7.54057027,1.93785847 Z M9.20282248,2.49225422 C9.20282248,3.87404476 10.3022926,4.94025844 11.7134723,4.94025844 C12.1116891,4.94025844 12.4580165,4.86350049 12.8735796,4.66733308 L12.8735796,3.59257437 C12.5013075,3.95934775 12.1723263,4.10439229 11.7567632,4.10439229 C10.8217838,4.10439229 10.1551482,3.43905846 10.1551482,2.48378286 C10.1551482,1.57963012 10.8390553,0.871681618 11.7134723,0.871681618 C12.15498,0.871681618 12.4926343,1.02521226 12.8735796,1.40047911 L12.8735796,0.325794062 C12.4666897,0.121081624 12.1290354,0.0357860029 11.7307438,0.0357860029 C10.3369103,0.0357860029 9.20282248,1.12756848 9.20282248,2.49225422 Z M20.2496368,3.29408757 L18.977003,0.138142222 L17.9641148,0.138142222 L19.9812929,4.94880347 L20.4834378,4.94880347 L22.5352336,0.138142222 L21.5309438,0.138142222 L20.2496368,3.29408757 Z M22.9593951,4.82939402 L25.5912445,4.82939402 L25.5912445,4.0361057 L23.8857762,4.0361057 L23.8857762,2.77379828 L25.5306821,2.77379828 L25.5306821,1.98050996 L23.8857762,1.98050996 L23.8857762,0.939916642 L25.5912445,0.939916642 L25.5912445,0.138142222 L22.9593951,0.138142222 L22.9593951,4.82939402 Z M29.2706748,1.52843359 C29.2706748,0.649915949 28.6560033,0.146672521 27.5824779,0.146672521 L26.205916,0.146672521 L26.205916,4.83793906 L27.1322971,4.83793906 L27.1322971,2.95287562 L27.2534967,2.95287562 L28.5348037,4.83793906 L29.6775647,4.83793906 L28.1798031,2.8590276 C28.8810564,2.71405672 29.2706748,2.24496396 29.2706748,1.52843359 Z M27.4006411,2.30463185 L27.1322971,2.30463185 L27.1322971,0.880211917 L27.4179873,0.880211917 C27.998041,0.880211917 28.3096759,1.11903818 28.3096759,1.57963012 C28.3096759,2.04872289 27.998041,2.30463185 27.4006411,2.30463185 Z" id="形状" fill="#231F20"></path>
                                <path d="M15.7220333,5 C16.3949493,5 17.0404254,4.7365773 17.5162518,4.26777919 C17.992153,3.79890741 18.2594502,3.1630392 18.2594502,2.49998895 C18.2594502,1.8369387 17.992153,1.20107049 17.5162518,0.732235542 C17.0404254,0.263393232 16.3949493,0 15.7220333,0 C15.0490424,0 14.4035664,0.263393232 13.92774,0.732235542 C13.4518388,1.20107049 13.1845416,1.8369387 13.1845416,2.49998895 C13.1845416,3.1630392 13.4518388,3.79890741 13.92774,4.26777919 C14.4035664,4.7365773 15.0490424,5 15.7220333,5 Z" id="路径" fill="url(#linearGradient-1)"></path>
                                <path d="M15.7220333,5 C16.3949493,5 17.0404254,4.7365773 17.5162518,4.26777919 C17.992153,3.79890741 18.2594502,3.1630392 18.2594502,2.49998895 C18.2594502,1.8369387 17.992153,1.20107049 17.5162518,0.732235542 C17.0404254,0.263393232 16.3949493,0 15.7220333,0 C15.0490424,0 14.4035664,0.263393232 13.92774,0.732235542 C13.4518388,1.20107049 13.1845416,1.8369387 13.1845416,2.49998895 C13.1845416,3.1630392 13.4518388,3.79890741 13.92774,4.26777919 C14.4035664,4.7365773 15.0490424,5 15.7220333,5 Z" id="路径" fill="url(#linearGradient-2)" opacity="0.65"></path>
                            </g>
                            <g id="编组-27" transform="translate(29.636060, 0.194130)" fill="#231F20">
                                <path d="M0.645482356,0.36294522 C0.645482356,0.25178682 0.567336165,0.19620282 0.444424749,0.19620282 L0.265653277,0.19620282 L0.265653277,0.72976122 L0.399756,0.72976122 L0.399756,0.51856122 L0.556144859,0.72976122 L0.712533718,0.72976122 L0.533762246,0.50744442 C0.600813608,0.49633722 0.645482356,0.44075322 0.645482356,0.36294522 Z M0.422042136,0.44075322 L0.399756,0.44075322 L0.399756,0.29624442 L0.422042136,0.29624442 C0.489093497,0.29624442 0.522667417,0.31847802 0.522667417,0.36294522 C0.522667417,0.41851962 0.489093497,0.44075322 0.422042136,0.44075322 Z" id="形状"></path>
                                <path d="M0.469166577,-8.46114845e-13 C0.212248914,-8.46114845e-13 5.46108297e-14,0.2112 5.46108297e-14,0.4668672 C5.46108297e-14,0.7225248 0.212248914,0.9337248 0.469166577,0.9337248 C0.726084239,0.9337248 0.938333153,0.7225248 0.938333153,0.4668672 C0.938333153,0.2112 0.726084239,-8.46114845e-13 0.469166577,-8.46114845e-13 Z M0.469166577,0.8559168 C0.268108969,0.8559168 0.0893374974,0.689184 0.0893374974,0.4668672 C0.0893374974,0.2556672 0.256917663,0.077808 0.469166577,0.077808 C0.670224184,0.077808 0.837804349,0.2556672 0.837804349,0.4668672 C0.837804349,0.6780672 0.670224184,0.8559168 0.469166577,0.8559168 Z" id="形状"></path>
                            </g>
                            <path d="M33.8691572,6.45669955 C33.8691572,6.45669955 23.6223804,13.3347336 4.89291053,16.4566996 L31.8001206,16.4566996 C32.3457319,16.4566996 32.8691973,16.2485512 33.2565724,15.877523 C33.6439475,15.5064948 33.8637101,15.0026793 33.8680857,14.4758416 L33.8929105,11.460709 L33.8691572,6.45773426 L33.8691572,6.45669955 Z" id="路径" fill="#F48120"></path>
                        </g>
                    </g>
                </g>
            </g>
        </g>
    </g>
</svg>