<?xml version="1.0" encoding="UTF-8"?>
<svg width="40px" height="24px" viewBox="0 0 40 24" version="1.1" xmlns="http://www.w3.org/2000/svg" xmlns:xlink="http://www.w3.org/1999/xlink">
    <title>card_08</title>
    <g id="PC" stroke="none" stroke-width="1" fill="none" fill-rule="evenodd">
        <g id="Listing-增加amazon-button、支付方式等" transform="translate(-1414.000000, -1846.000000)" fill-rule="nonzero">
            <g id="编组-25" transform="translate(1088.000000, 1659.000000)">
                <g id="编组-10" transform="translate(18.000000, 187.000000)">
                    <g id="card_08" transform="translate(309.000000, 1.000000)">
                        <path d="M35.8888808,-0.5 C36.6037498,-0.5 37.2528434,-0.221583112 37.7237323,0.224520483 C38.2047011,0.680173379 38.5,1.30956892 38.5,2 L38.5,20.0000738 C38.5,20.6904705 38.2046978,21.3198558 37.723717,21.7755033 C37.2528301,22.2215885 36.6037425,22.5 35.8888808,22.5 L2.1111101,22.5 C1.39625256,22.5 0.747166298,22.221588 0.276280113,21.7755016 C-0.20469839,21.3198543 -0.5,20.6904697 -0.5,20.0000738 L-0.5,2 C-0.5,1.30956973 -0.204701718,0.680174857 0.276264761,0.224522185 C0.747153007,-0.221582683 1.39624521,-0.5 2.1111101,-0.5 Z" id="路径" stroke="#DDDDDD" fill="#FFFFFF"></path>
                        <path d="M24.444283,6.96365812 C24.6665253,5.8727516 24.444283,5.10911044 23.7776522,4.45457029 C23.1109254,3.69092913 21.8887848,3.36365435 20.3331849,3.36365435 L15.7776023,3.36365435 C15.4443348,3.36365435 15.2220926,3.58183754 15.1109714,3.90911232 L13.4442504,14.9272786 C13.4442504,15.1454806 13.5553715,15.3636826 13.7776138,15.3636826 L16.7775965,15.3636826 L17.2220811,11.6546249 L19.2220695,9.25459102 L24.444283,6.96365812 Z" id="路径" fill="#003087"></path>
                        <path d="M24.4444749,6.96365812 L24.2222327,7.18183189 C23.666723,10.2364059 21.7778556,11.3273219 19.1111403,11.3273219 L17.8889038,11.3273219 C17.5556364,11.3273219 17.3333999,11.5455239 17.222273,11.8727328 L16.5556421,16.1272955 L16.3333999,17.2182115 C16.3333999,17.4364135 16.444521,17.6546155 16.6667633,17.6546155 L19.0000192,17.6546155 C19.3333826,17.6546155 19.5556249,17.4364135 19.5556249,17.2182115 L19.5556249,17.1091104 L20.0000134,14.4909687 L20.0000134,14.3818677 C20.0000134,14.1636657 20.3333768,13.9454636 20.5556191,13.9454636 L20.8889825,13.9454636 C23.2222384,13.9454636 25.0000806,13.0727497 25.4444692,10.454608 C25.6667114,9.36369204 25.5555903,8.49088391 25.0000806,7.83637203 C24.8889595,7.29092348 24.6667172,7.07274971 24.4444749,6.96365812 Z" id="路径" fill="#3086C8"></path>
                        <path d="M23.7775562,6.74555972 C23.6664351,6.63646813 23.555314,6.63646813 23.4441928,6.63646813 C23.3330717,6.63646813 23.2219506,6.63646813 23.1109254,6.52737654 C22.777562,6.41828494 22.3330774,6.41828494 21.8886889,6.41828494 L18.5553427,6.41828494 C18.4442216,6.41828494 18.3331005,6.41828494 18.3331005,6.52737654 C18.1108582,6.63646813 17.9997371,6.74555972 17.9997371,6.96374291 L17.2219851,11.763726 L17.2219851,11.872827 C17.2219851,11.5455239 17.5553485,11.3274161 17.8887119,11.3274161 L19.3330947,11.3274161 C22.1109311,11.3274161 23.8886774,10.2365002 24.4441871,7.18191668 L24.4441871,6.96374291 C24.3330659,6.85465132 24.1109196,6.74555972 23.8886774,6.74555972 L23.7775562,6.74555972 Z" id="路径" fill="#012169"></path>
                    </g>
                </g>
            </g>
        </g>
    </g>
</svg>