<?xml version="1.0" encoding="UTF-8"?>
<svg width="40px" height="24px" viewBox="0 0 40 24" version="1.1" xmlns="http://www.w3.org/2000/svg" xmlns:xlink="http://www.w3.org/1999/xlink">
    <title>card_01</title>
    <g id="PC" stroke="none" stroke-width="1" fill="none" fill-rule="evenodd">
        <g id="Listing-增加amazon-button、支付方式等" transform="translate(-1106.000000, -1846.000000)" fill-rule="nonzero">
            <g id="编组-25" transform="translate(1088.000000, 1659.000000)">
                <g id="card_01" transform="translate(18.000000, 187.000000)">
                    <path d="M37.7777692,0 C39,0 40,0.981814927 40,2.18182246 L40,21.8182623 C40,23.0181851 39,24 37.7777692,24 L2.22222116,24 C1,24 0,23.0181851 0,21.8182623 L0,2.18182246 C0,0.981814927 1,0 2.22222116,0 L37.7777692,0 Z" id="路径" fill="#FFB3C7"></path>
                    <path d="M36.192038,14.266079 C36.0649876,14.26655 35.9392806,14.2916112 35.8221141,14.3398494 C35.7049475,14.3879932 35.5985284,14.4584661 35.50919,14.5471224 C35.4197558,14.6356846 35.3489376,14.7408286 35.3009579,14.8563362 C35.2528821,14.9718438 35.2286044,15.095454 35.2292625,15.2201947 C35.2286044,15.3449354 35.2528821,15.4686397 35.3009579,15.5841474 C35.3489376,15.699655 35.4197558,15.8047048 35.50919,15.8933611 C35.5985284,15.9819233 35.7049475,16.0523961 35.8221141,16.1006342 C35.9392806,16.1488723 36.0649876,16.1739335 36.192038,16.1744046 C36.723174,16.1744046 37.1549095,15.746951 37.1549095,15.2201947 C37.1555677,15.095454 37.1312899,14.9718438 37.0832142,14.8563362 C37.0352344,14.7408286 36.9644163,14.6356846 36.874982,14.5471224 C36.7856437,14.4584661 36.6792246,14.3879932 36.562058,14.3398494 C36.4448914,14.2916112 36.3191844,14.26655 36.192038,14.266079 Z M33.0237423,13.5291289 C33.0237423,12.8073475 32.4014448,12.2229316 31.6336726,12.2229316 C30.8659964,12.2229316 30.2436988,12.8081955 30.2436988,13.5291289 C30.2436988,14.2500624 30.86686,14.8344783 31.6346322,14.8344783 C32.4023084,14.8344783 33.0237423,14.2500624 33.0237423,13.5291289 Z M33.029116,10.9903163 L34.5627412,10.9903163 L34.5627412,16.0670937 L33.029116,16.0670937 L33.029116,15.7425229 C32.5820406,16.0455184 32.0514804,16.2076625 31.5081575,16.2071925 C30.0152192,16.2071925 28.8049776,15.0083051 28.8049776,13.5291289 C28.8049776,12.050047 30.0152192,10.8511607 31.5081575,10.8511607 C32.0726874,10.8511607 32.5955709,11.0222552 33.029116,11.3158292 L33.029116,10.9903163 Z M20.7530136,11.6518943 L20.7530136,10.9912584 L19.1823481,10.9912584 L19.1823481,16.0670937 L20.7566601,16.0670937 L20.7566601,13.6967375 C20.7566601,12.8968518 21.6309473,12.4677023 22.2378913,12.4677023 L22.2559317,12.4677023 L22.2559317,10.9912584 C21.6327706,10.9912584 21.0610437,11.2554374 20.7530136,11.6518943 Z M16.8404558,13.5291289 C16.8404558,12.8073475 16.2181582,12.2229316 15.450386,12.2229316 C14.6827098,12.2229316 14.0604123,12.8081955 14.0604123,13.5291289 C14.0604123,14.2500624 14.6835735,14.8344783 15.4513456,14.8344783 C16.2190219,14.8344783 16.8404558,14.2500624 16.8404558,13.5291289 Z M16.8458295,10.9903163 L18.3803183,10.9903163 L18.3803183,16.0670937 L16.8458295,16.0670937 L16.8458295,15.7425229 C16.4122844,16.0351548 15.8894009,16.2071914 15.324871,16.2071914 C13.8319326,16.2071914 12.6216911,15.0083051 12.6216911,13.5291289 C12.6216911,12.050047 13.8319326,10.8511607 15.324871,10.8511607 C15.8894009,10.8511607 16.4122844,11.0222552 16.8458295,11.3158292 L16.8458295,10.9903163 Z M26.0791513,10.8546466 C25.4667375,10.8546466 24.8869501,11.0426998 24.4985059,11.5622958 L24.4985059,10.9912584 L22.9712141,10.9912584 L22.9712141,16.0670937 L24.5175059,16.0670937 L24.5175059,13.3996775 C24.5175059,12.6282447 25.0395257,12.2495945 25.6691162,12.2495945 C26.342848,12.2495945 26.7311963,12.6485952 26.7311963,13.3890312 L26.7311963,16.0670937 L28.2629982,16.0670937 L28.2629982,12.8392864 C28.2629982,11.6581125 27.3146302,10.8546466 26.0791513,10.8546466 Z M10.3871775,16.0670937 L11.9930602,16.0670937 L11.9930602,8.7290611 L10.3871775,8.7290611 L10.3871775,16.0670937 Z M3.33327896,16.0688838 L5.03397927,16.0688838 L5.03397927,8.72727101 L3.33418098,8.72727101 L3.33327896,16.0688838 Z M9.28162778,8.72727101 C9.28162778,10.3163961 8.65664337,11.795478 7.54213103,12.8942138 L9.89221826,16.0688838 L7.79230712,16.0688838 L5.2390064,12.6192943 L5.89832512,12.1298472 C6.43506515,11.7334845 6.86995373,11.219353 7.16823433,10.6286247 C7.46650533,10.0378022 7.61991582,9.38668208 7.61619259,8.72727101 L9.27990051,8.72727101 L9.28162778,8.72727101 Z" id="形状" fill="#0A0B09"></path>
                </g>
            </g>
        </g>
    </g>
</svg>